<mxfile host="app.diagrams.net" modified="2023-02-03T01:58:38.982Z" agent="5.0 (Windows NT 10.0; Win64; x64) AppleWebKit/537.36 (KHTML, like Gecko) Chrome/109.0.0.0 Safari/537.36" etag="VxRQt2cKw2_-VEkEQFir" version="20.8.16" type="github">
  <diagram name="페이지-1" id="_Jpwml0fOtb8tEQNi3Sa">
    <mxGraphModel dx="1909" dy="998" grid="1" gridSize="10" guides="1" tooltips="1" connect="1" arrows="1" fold="1" page="1" pageScale="1" pageWidth="827" pageHeight="1169" math="0" shadow="0">
      <root>
        <mxCell id="0" />
        <mxCell id="1" parent="0" />
        <mxCell id="LK1-EXkS_fml6ojnkV7v-27" style="edgeStyle=orthogonalEdgeStyle;rounded=0;orthogonalLoop=1;jettySize=auto;html=1;fontSize=20;fontColor=#333333;entryX=0.5;entryY=0;entryDx=0;entryDy=0;" edge="1" parent="1" source="LK1-EXkS_fml6ojnkV7v-1" target="LK1-EXkS_fml6ojnkV7v-2">
          <mxGeometry relative="1" as="geometry">
            <mxPoint x="240" y="440" as="targetPoint" />
            <Array as="points">
              <mxPoint x="240" y="440" />
              <mxPoint x="140" y="440" />
            </Array>
          </mxGeometry>
        </mxCell>
        <mxCell id="LK1-EXkS_fml6ojnkV7v-28" style="edgeStyle=orthogonalEdgeStyle;rounded=0;orthogonalLoop=1;jettySize=auto;html=1;entryX=0.5;entryY=0;entryDx=0;entryDy=0;fontSize=20;fontColor=#333333;" edge="1" parent="1" source="LK1-EXkS_fml6ojnkV7v-1" target="LK1-EXkS_fml6ojnkV7v-7">
          <mxGeometry relative="1" as="geometry">
            <Array as="points">
              <mxPoint x="240" y="440" />
              <mxPoint x="340" y="440" />
            </Array>
          </mxGeometry>
        </mxCell>
        <mxCell id="LK1-EXkS_fml6ojnkV7v-30" style="edgeStyle=orthogonalEdgeStyle;rounded=0;orthogonalLoop=1;jettySize=auto;html=1;entryX=0.5;entryY=0;entryDx=0;entryDy=0;fontSize=20;fontColor=#333333;" edge="1" parent="1" source="LK1-EXkS_fml6ojnkV7v-1" target="LK1-EXkS_fml6ojnkV7v-11">
          <mxGeometry relative="1" as="geometry">
            <Array as="points">
              <mxPoint x="240" y="440" />
              <mxPoint x="540" y="440" />
            </Array>
          </mxGeometry>
        </mxCell>
        <mxCell id="LK1-EXkS_fml6ojnkV7v-31" style="edgeStyle=orthogonalEdgeStyle;rounded=0;orthogonalLoop=1;jettySize=auto;html=1;entryX=0.5;entryY=0;entryDx=0;entryDy=0;fontSize=20;fontColor=#333333;" edge="1" parent="1" source="LK1-EXkS_fml6ojnkV7v-1" target="LK1-EXkS_fml6ojnkV7v-14">
          <mxGeometry relative="1" as="geometry">
            <Array as="points">
              <mxPoint x="240" y="440" />
              <mxPoint x="740" y="440" />
            </Array>
          </mxGeometry>
        </mxCell>
        <mxCell id="LK1-EXkS_fml6ojnkV7v-32" style="edgeStyle=orthogonalEdgeStyle;rounded=0;orthogonalLoop=1;jettySize=auto;html=1;entryX=0.5;entryY=0;entryDx=0;entryDy=0;fontSize=20;fontColor=#333333;" edge="1" parent="1" source="LK1-EXkS_fml6ojnkV7v-1" target="LK1-EXkS_fml6ojnkV7v-18">
          <mxGeometry relative="1" as="geometry">
            <Array as="points">
              <mxPoint x="240" y="120" />
              <mxPoint x="420" y="120" />
            </Array>
          </mxGeometry>
        </mxCell>
        <mxCell id="LK1-EXkS_fml6ojnkV7v-33" style="edgeStyle=orthogonalEdgeStyle;rounded=0;orthogonalLoop=1;jettySize=auto;html=1;fontSize=20;fontColor=#333333;" edge="1" parent="1" source="LK1-EXkS_fml6ojnkV7v-1" target="LK1-EXkS_fml6ojnkV7v-21">
          <mxGeometry relative="1" as="geometry">
            <Array as="points">
              <mxPoint x="240" y="120" />
              <mxPoint x="580" y="120" />
            </Array>
          </mxGeometry>
        </mxCell>
        <mxCell id="LK1-EXkS_fml6ojnkV7v-34" style="edgeStyle=orthogonalEdgeStyle;rounded=0;orthogonalLoop=1;jettySize=auto;html=1;entryX=0.5;entryY=0;entryDx=0;entryDy=0;fontSize=20;fontColor=#333333;" edge="1" parent="1" source="LK1-EXkS_fml6ojnkV7v-1" target="LK1-EXkS_fml6ojnkV7v-24">
          <mxGeometry relative="1" as="geometry">
            <Array as="points">
              <mxPoint x="240" y="120" />
              <mxPoint x="740" y="120" />
            </Array>
          </mxGeometry>
        </mxCell>
        <mxCell id="LK1-EXkS_fml6ojnkV7v-1" value="&lt;font style=&quot;font-size: 20px;&quot;&gt;HOME&lt;/font&gt;" style="rounded=0;whiteSpace=wrap;html=1;fillColor=#f5f5f5;fontColor=#333333;strokeColor=#666666;" vertex="1" parent="1">
          <mxGeometry x="160" y="40" width="160" height="40" as="geometry" />
        </mxCell>
        <mxCell id="LK1-EXkS_fml6ojnkV7v-2" value="&lt;span style=&quot;font-size: 20px;&quot;&gt;About Us&lt;/span&gt;" style="rounded=0;whiteSpace=wrap;html=1;fillColor=#dae8fc;strokeColor=#6c8ebf;" vertex="1" parent="1">
          <mxGeometry x="80" y="480" width="120" height="40" as="geometry" />
        </mxCell>
        <mxCell id="LK1-EXkS_fml6ojnkV7v-3" value="&lt;font color=&quot;#000000&quot;&gt;회사 소개&lt;/font&gt;" style="rounded=1;whiteSpace=wrap;html=1;fontSize=20;fillColor=#f5f5f5;fontColor=#333333;strokeColor=#666666;" vertex="1" parent="1">
          <mxGeometry x="80" y="560" width="120" height="40" as="geometry" />
        </mxCell>
        <mxCell id="LK1-EXkS_fml6ojnkV7v-4" value="&lt;font color=&quot;#000000&quot;&gt;CEO 인사말&lt;/font&gt;" style="rounded=1;whiteSpace=wrap;html=1;fontSize=20;fillColor=#f5f5f5;fontColor=#333333;strokeColor=#666666;" vertex="1" parent="1">
          <mxGeometry x="80" y="640" width="120" height="40" as="geometry" />
        </mxCell>
        <mxCell id="LK1-EXkS_fml6ojnkV7v-5" value="&lt;font color=&quot;#000000&quot;&gt;연혁&lt;/font&gt;" style="rounded=1;whiteSpace=wrap;html=1;fontSize=20;fillColor=#f5f5f5;fontColor=#333333;strokeColor=#666666;" vertex="1" parent="1">
          <mxGeometry x="80" y="720" width="120" height="40" as="geometry" />
        </mxCell>
        <mxCell id="LK1-EXkS_fml6ojnkV7v-6" value="&lt;font color=&quot;#000000&quot;&gt;연락처&lt;/font&gt;" style="rounded=1;whiteSpace=wrap;html=1;fontSize=20;fillColor=#f5f5f5;fontColor=#333333;strokeColor=#666666;" vertex="1" parent="1">
          <mxGeometry x="80" y="800" width="120" height="40" as="geometry" />
        </mxCell>
        <mxCell id="LK1-EXkS_fml6ojnkV7v-7" value="&lt;span style=&quot;font-size: 20px;&quot;&gt;사업 소개&lt;/span&gt;" style="rounded=0;whiteSpace=wrap;html=1;fillColor=#dae8fc;strokeColor=#6c8ebf;" vertex="1" parent="1">
          <mxGeometry x="280" y="480" width="120" height="40" as="geometry" />
        </mxCell>
        <mxCell id="LK1-EXkS_fml6ojnkV7v-8" value="&lt;font color=&quot;#000000&quot;&gt;사업 영역 1&lt;/font&gt;" style="rounded=1;whiteSpace=wrap;html=1;fontSize=20;fillColor=#f5f5f5;fontColor=#333333;strokeColor=#666666;" vertex="1" parent="1">
          <mxGeometry x="280" y="560" width="120" height="40" as="geometry" />
        </mxCell>
        <mxCell id="LK1-EXkS_fml6ojnkV7v-9" value="&lt;font color=&quot;#000000&quot;&gt;사업 영역 2&lt;/font&gt;" style="rounded=1;whiteSpace=wrap;html=1;fontSize=20;fillColor=#f5f5f5;fontColor=#333333;strokeColor=#666666;" vertex="1" parent="1">
          <mxGeometry x="280" y="640" width="120" height="40" as="geometry" />
        </mxCell>
        <mxCell id="LK1-EXkS_fml6ojnkV7v-10" value="&lt;font color=&quot;#000000&quot;&gt;사업 영역 3&lt;/font&gt;" style="rounded=1;whiteSpace=wrap;html=1;fontSize=20;fillColor=#f5f5f5;fontColor=#333333;strokeColor=#666666;" vertex="1" parent="1">
          <mxGeometry x="280" y="720" width="120" height="40" as="geometry" />
        </mxCell>
        <mxCell id="LK1-EXkS_fml6ojnkV7v-11" value="&lt;span style=&quot;font-size: 20px;&quot;&gt;제품 소개&lt;/span&gt;" style="rounded=0;whiteSpace=wrap;html=1;fillColor=#dae8fc;strokeColor=#6c8ebf;" vertex="1" parent="1">
          <mxGeometry x="480" y="480" width="120" height="40" as="geometry" />
        </mxCell>
        <mxCell id="LK1-EXkS_fml6ojnkV7v-12" value="제품 소개&amp;nbsp;1" style="rounded=1;whiteSpace=wrap;html=1;fontSize=20;fillColor=#f5f5f5;fontColor=#333333;strokeColor=#666666;" vertex="1" parent="1">
          <mxGeometry x="480" y="560" width="120" height="40" as="geometry" />
        </mxCell>
        <mxCell id="LK1-EXkS_fml6ojnkV7v-13" value="제품 소개&amp;nbsp;2" style="rounded=1;whiteSpace=wrap;html=1;fontSize=20;fillColor=#f5f5f5;fontColor=#333333;strokeColor=#666666;" vertex="1" parent="1">
          <mxGeometry x="480" y="640" width="120" height="40" as="geometry" />
        </mxCell>
        <mxCell id="LK1-EXkS_fml6ojnkV7v-14" value="&lt;span style=&quot;font-size: 20px;&quot;&gt;고객 센터&lt;/span&gt;" style="rounded=0;whiteSpace=wrap;html=1;fillColor=#dae8fc;strokeColor=#6c8ebf;" vertex="1" parent="1">
          <mxGeometry x="680" y="480" width="120" height="40" as="geometry" />
        </mxCell>
        <mxCell id="LK1-EXkS_fml6ojnkV7v-15" value="공지 사항" style="rounded=1;whiteSpace=wrap;html=1;fontSize=20;fillColor=#f5f5f5;fontColor=#333333;strokeColor=#666666;" vertex="1" parent="1">
          <mxGeometry x="680" y="560" width="120" height="40" as="geometry" />
        </mxCell>
        <mxCell id="LK1-EXkS_fml6ojnkV7v-16" value="질문 답변" style="rounded=1;whiteSpace=wrap;html=1;fontSize=20;fillColor=#f5f5f5;fontColor=#333333;strokeColor=#666666;" vertex="1" parent="1">
          <mxGeometry x="680" y="640" width="120" height="40" as="geometry" />
        </mxCell>
        <mxCell id="LK1-EXkS_fml6ojnkV7v-17" value="1:1 문의" style="rounded=1;whiteSpace=wrap;html=1;fontSize=20;fillColor=#f5f5f5;fontColor=#333333;strokeColor=#666666;" vertex="1" parent="1">
          <mxGeometry x="680" y="720" width="120" height="40" as="geometry" />
        </mxCell>
        <mxCell id="LK1-EXkS_fml6ojnkV7v-18" value="&lt;span style=&quot;font-size: 20px;&quot;&gt;로그인&lt;/span&gt;" style="rounded=0;whiteSpace=wrap;html=1;fillColor=#d5e8d4;strokeColor=#82b366;" vertex="1" parent="1">
          <mxGeometry x="360" y="160" width="120" height="40" as="geometry" />
        </mxCell>
        <mxCell id="LK1-EXkS_fml6ojnkV7v-19" value="아이디 찾기" style="rounded=1;whiteSpace=wrap;html=1;fontSize=20;fillColor=#fff2cc;strokeColor=#d6b656;" vertex="1" parent="1">
          <mxGeometry x="360" y="240" width="120" height="40" as="geometry" />
        </mxCell>
        <mxCell id="LK1-EXkS_fml6ojnkV7v-20" value="비번 찾기" style="rounded=1;whiteSpace=wrap;html=1;fontSize=20;fillColor=#fff2cc;strokeColor=#d6b656;" vertex="1" parent="1">
          <mxGeometry x="360" y="320" width="120" height="40" as="geometry" />
        </mxCell>
        <mxCell id="LK1-EXkS_fml6ojnkV7v-21" value="&lt;span style=&quot;font-size: 20px;&quot;&gt;회원 가입&lt;/span&gt;" style="rounded=0;whiteSpace=wrap;html=1;fillColor=#d5e8d4;strokeColor=#82b366;" vertex="1" parent="1">
          <mxGeometry x="520" y="160" width="120" height="40" as="geometry" />
        </mxCell>
        <mxCell id="LK1-EXkS_fml6ojnkV7v-22" value="탈퇴" style="rounded=1;whiteSpace=wrap;html=1;fontSize=20;fillColor=#fff2cc;strokeColor=#d6b656;" vertex="1" parent="1">
          <mxGeometry x="520" y="240" width="120" height="40" as="geometry" />
        </mxCell>
        <mxCell id="LK1-EXkS_fml6ojnkV7v-24" value="&lt;span style=&quot;font-size: 20px;&quot;&gt;마이 메뉴&lt;/span&gt;" style="rounded=0;whiteSpace=wrap;html=1;fillColor=#d5e8d4;strokeColor=#82b366;" vertex="1" parent="1">
          <mxGeometry x="680" y="160" width="120" height="40" as="geometry" />
        </mxCell>
        <mxCell id="LK1-EXkS_fml6ojnkV7v-25" value="정보 수정" style="rounded=1;whiteSpace=wrap;html=1;fontSize=20;fillColor=#fff2cc;strokeColor=#d6b656;" vertex="1" parent="1">
          <mxGeometry x="680" y="240" width="120" height="40" as="geometry" />
        </mxCell>
        <mxCell id="LK1-EXkS_fml6ojnkV7v-26" value="구매 내역" style="rounded=1;whiteSpace=wrap;html=1;fontSize=20;fillColor=#fff2cc;strokeColor=#d6b656;" vertex="1" parent="1">
          <mxGeometry x="680" y="320" width="120" height="40" as="geometry" />
        </mxCell>
      </root>
    </mxGraphModel>
  </diagram>
</mxfile>
